<svg width="208" height="53" viewBox="0 0 208 53" fill="none" xmlns="http://www.w3.org/2000/svg">
<g filter="url(#filter0_d_136_374)">
<ellipse cx="21.1073" cy="12.4633" rx="11.2179" ry="10.6071" fill="white"/>
<ellipse cx="31.4838" cy="10.6071" rx="11.2179" ry="10.6071" fill="white"/>
<ellipse cx="41.019" cy="17.2365" rx="10.9374" ry="10.3419" fill="white"/>
<ellipse cx="35.1296" cy="27.8436" rx="10.9374" ry="10.3419" fill="white"/>
<ellipse cx="43.543" cy="12.7285" rx="10.9374" ry="10.3419" fill="white"/>
<ellipse cx="45.7866" cy="23.3355" rx="10.9374" ry="10.3419" fill="white"/>
<ellipse cx="15.4983" cy="19.0927" rx="10.9374" ry="10.3419" fill="white"/>
<ellipse cx="20.8268" cy="28.1087" rx="10.9374" ry="10.3419" fill="white"/>
</g>
<g filter="url(#filter1_d_136_374)">
<ellipse rx="2.2206" ry="2.14545" transform="matrix(0.907981 -0.419011 0.458661 0.888611 10.0852 39.4313)" fill="white"/>
</g>
<g filter="url(#filter2_d_136_374)">
<ellipse rx="1.1103" ry="1.07273" transform="matrix(0.907981 -0.419011 0.458661 0.888611 5.50015 43.5815)" fill="white"/>
</g>
<g filter="url(#filter3_d_136_374)">
<path d="M95.4606 12.2L90.0126 29H84.9246L81.7086 18.776L78.3486 29H73.2606L67.8126 12.2H72.7086L76.0926 22.928L79.6446 12.2H84.0126L87.3966 23.024L90.9246 12.2H95.4606ZM107.833 25.736H100.729L99.4093 29H94.5613L101.977 12.2H106.657L114.097 29H109.153L107.833 25.736ZM106.441 22.232L104.281 16.856L102.121 22.232H106.441ZM123.586 29.336C121.826 29.336 120.242 28.968 118.834 28.232C117.442 27.48 116.346 26.44 115.546 25.112C114.746 23.784 114.346 22.28 114.346 20.6C114.346 18.92 114.746 17.416 115.546 16.088C116.346 14.76 117.442 13.728 118.834 12.992C120.242 12.24 121.826 11.864 123.586 11.864C125.122 11.864 126.506 12.136 127.738 12.68C128.97 13.224 129.994 14.008 130.81 15.032L127.786 17.768C126.698 16.456 125.378 15.8 123.826 15.8C122.914 15.8 122.098 16 121.378 16.4C120.674 16.8 120.122 17.368 119.722 18.104C119.338 18.824 119.146 19.656 119.146 20.6C119.146 21.544 119.338 22.384 119.722 23.12C120.122 23.84 120.674 24.4 121.378 24.8C122.098 25.2 122.914 25.4 123.826 25.4C125.378 25.4 126.698 24.744 127.786 23.432L130.81 26.168C129.994 27.192 128.97 27.976 127.738 28.52C126.506 29.064 125.122 29.336 123.586 29.336ZM132.213 20.408H139.221V23.912H132.213V20.408ZM167.718 12.2L162.27 29H157.182L153.966 18.776L150.606 29H145.518L140.07 12.2H144.966L148.35 22.928L151.902 12.2H156.27L159.654 23.024L163.182 12.2H167.718ZM180.091 25.736H172.987L171.667 29H166.819L174.235 12.2H178.915L186.355 29H181.411L180.091 25.736ZM178.699 22.232L176.539 16.856L174.379 22.232H178.699ZM195.844 29.336C194.084 29.336 192.5 28.968 191.092 28.232C189.7 27.48 188.604 26.44 187.804 25.112C187.004 23.784 186.604 22.28 186.604 20.6C186.604 18.92 187.004 17.416 187.804 16.088C188.604 14.76 189.7 13.728 191.092 12.992C192.5 12.24 194.084 11.864 195.844 11.864C197.38 11.864 198.764 12.136 199.996 12.68C201.228 13.224 202.252 14.008 203.068 15.032L200.044 17.768C198.956 16.456 197.636 15.8 196.084 15.8C195.172 15.8 194.356 16 193.636 16.4C192.932 16.8 192.38 17.368 191.98 18.104C191.596 18.824 191.404 19.656 191.404 20.6C191.404 21.544 191.596 22.384 191.98 23.12C192.38 23.84 192.932 24.4 193.636 24.8C194.356 25.2 195.172 25.4 196.084 25.4C197.636 25.4 198.956 24.744 200.044 23.432L203.068 26.168C202.252 27.192 201.228 27.976 199.996 28.52C198.764 29.064 197.38 29.336 195.844 29.336Z" fill="white"/>
</g>
<defs>
<filter id="filter0_d_136_374" x="0.560913" y="0" width="60.1631" height="46.4506" filterUnits="userSpaceOnUse" color-interpolation-filters="sRGB">
<feFlood flood-opacity="0" result="BackgroundImageFix"/>
<feColorMatrix in="SourceAlpha" type="matrix" values="0 0 0 0 0 0 0 0 0 0 0 0 0 0 0 0 0 0 127 0" result="hardAlpha"/>
<feOffset dy="4"/>
<feGaussianBlur stdDeviation="2"/>
<feComposite in2="hardAlpha" operator="out"/>
<feColorMatrix type="matrix" values="0 0 0 0 0 0 0 0 0 0 0 0 0 0 0 0 0 0 0.25 0"/>
<feBlend mode="normal" in2="BackgroundImageFix" result="effect1_dropShadow_136_374"/>
<feBlend mode="normal" in="SourceGraphic" in2="effect1_dropShadow_136_374" result="shape"/>
</filter>
<filter id="filter1_d_136_374" x="3.84113" y="37.3094" width="12.4882" height="12.2438" filterUnits="userSpaceOnUse" color-interpolation-filters="sRGB">
<feFlood flood-opacity="0" result="BackgroundImageFix"/>
<feColorMatrix in="SourceAlpha" type="matrix" values="0 0 0 0 0 0 0 0 0 0 0 0 0 0 0 0 0 0 127 0" result="hardAlpha"/>
<feOffset dy="4"/>
<feGaussianBlur stdDeviation="2"/>
<feComposite in2="hardAlpha" operator="out"/>
<feColorMatrix type="matrix" values="0 0 0 0 0 0 0 0 0 0 0 0 0 0 0 0 0 0 0.25 0"/>
<feBlend mode="normal" in2="BackgroundImageFix" result="effect1_dropShadow_136_374"/>
<feBlend mode="normal" in="SourceGraphic" in2="effect1_dropShadow_136_374" result="shape"/>
</filter>
<filter id="filter2_d_136_374" x="0.378113" y="42.5206" width="10.2441" height="10.1219" filterUnits="userSpaceOnUse" color-interpolation-filters="sRGB">
<feFlood flood-opacity="0" result="BackgroundImageFix"/>
<feColorMatrix in="SourceAlpha" type="matrix" values="0 0 0 0 0 0 0 0 0 0 0 0 0 0 0 0 0 0 127 0" result="hardAlpha"/>
<feOffset dy="4"/>
<feGaussianBlur stdDeviation="2"/>
<feComposite in2="hardAlpha" operator="out"/>
<feColorMatrix type="matrix" values="0 0 0 0 0 0 0 0 0 0 0 0 0 0 0 0 0 0 0.25 0"/>
<feBlend mode="normal" in2="BackgroundImageFix" result="effect1_dropShadow_136_374"/>
<feBlend mode="normal" in="SourceGraphic" in2="effect1_dropShadow_136_374" result="shape"/>
</filter>
<filter id="filter3_d_136_374" x="63.8126" y="11.864" width="143.255" height="25.472" filterUnits="userSpaceOnUse" color-interpolation-filters="sRGB">
<feFlood flood-opacity="0" result="BackgroundImageFix"/>
<feColorMatrix in="SourceAlpha" type="matrix" values="0 0 0 0 0 0 0 0 0 0 0 0 0 0 0 0 0 0 127 0" result="hardAlpha"/>
<feOffset dy="4"/>
<feGaussianBlur stdDeviation="2"/>
<feComposite in2="hardAlpha" operator="out"/>
<feColorMatrix type="matrix" values="0 0 0 0 0 0 0 0 0 0 0 0 0 0 0 0 0 0 0.25 0"/>
<feBlend mode="normal" in2="BackgroundImageFix" result="effect1_dropShadow_136_374"/>
<feBlend mode="normal" in="SourceGraphic" in2="effect1_dropShadow_136_374" result="shape"/>
</filter>
</defs>
</svg>
